<svg xmlns="http://www.w3.org/2000/svg" xmlns:xlink="http://www.w3.org/1999/xlink" width="1920" zoomAndPan="magnify" viewBox="0 0 1440 449.999984" height="600" preserveAspectRatio="xMidYMid meet" version="1.0"><defs><filter x="0%" y="0%" width="100%" height="100%" id="955cb8dc1f"><feColorMatrix values="0 0 0 0 1 0 0 0 0 1 0 0 0 0 1 0 0 0 1 0" color-interpolation-filters="sRGB"/></filter><g/><mask id="219a5c2a4c"><g filter="url(#955cb8dc1f)"><rect x="-144" width="1728" fill="#000000" y="-44.999998" height="539.99998" fill-opacity="0.8"/></g></mask><clipPath id="20f9428a79"><rect x="0" width="907" y="0" height="450"/></clipPath><clipPath id="a92cad9545"><path d="M 1091.410156 217 L 1394 217 L 1394 247 L 1091.410156 247 Z M 1091.410156 217 " clip-rule="nonzero"/></clipPath><clipPath id="09d280b1d0"><path d="M 358 213 L 522.148438 213 L 522.148438 234 L 358 234 Z M 358 213 " clip-rule="nonzero"/></clipPath><clipPath id="4f4940a131"><path d="M 559 212 L 777.472656 212 L 777.472656 240 L 559 240 Z M 559 212 " clip-rule="nonzero"/></clipPath><clipPath id="e7a89d95f7"><path d="M 819 214 L 1051.148438 214 L 1051.148438 244 L 819 244 Z M 819 214 " clip-rule="nonzero"/></clipPath></defs><g mask="url(#219a5c2a4c)"><g transform="matrix(1, 0, 0, 1, 271, 0)"><g clip-path="url(#20f9428a79)"><g fill="#bfa17f" fill-opacity="1"><g transform="translate(1.090835, 375.672022)"><g><path d="M 14.28125 0 L 14.28125 -322.65625 L 143.484375 -322.65625 L 143.484375 -259.9375 L 79.25 -259.9375 L 79.25 -208.46875 L 140.109375 -208.46875 L 140.109375 -146.5 L 79.25 -146.5 L 79.25 0 Z M 14.28125 0 "/></g></g></g><g fill="#bfa17f" fill-opacity="1"><g transform="translate(178.386141, 375.672022)"><g><path d="M 91.28125 3 C 65.238281 3 45.453125 -4.945312 31.921875 -20.84375 C 18.398438 -36.75 11.640625 -59.097656 11.640625 -87.890625 L 11.640625 -241.53125 C 11.640625 -269.320312 18.398438 -290.289062 31.921875 -304.4375 C 45.453125 -318.59375 65.238281 -325.671875 91.28125 -325.671875 C 117.320312 -325.671875 137.101562 -318.59375 150.625 -304.4375 C 164.144531 -290.289062 170.90625 -269.320312 170.90625 -241.53125 L 170.90625 -87.890625 C 170.90625 -58.847656 164.144531 -36.4375 150.625 -20.65625 C 137.101562 -4.882812 117.320312 3 91.28125 3 Z M 91.28125 -56.34375 C 97.039062 -56.34375 100.921875 -58.847656 102.921875 -63.859375 C 104.921875 -68.867188 105.921875 -75.878906 105.921875 -84.890625 L 105.921875 -242.65625 C 105.921875 -249.664062 104.984375 -255.359375 103.109375 -259.734375 C 101.234375 -264.117188 97.414062 -266.3125 91.65625 -266.3125 C 80.882812 -266.3125 75.5 -258.175781 75.5 -241.90625 L 75.5 -84.515625 C 75.5 -75.253906 76.625 -68.242188 78.875 -63.484375 C 81.132812 -58.722656 85.269531 -56.34375 91.28125 -56.34375 Z M 91.28125 -56.34375 "/></g></g></g><g fill="#bfa17f" fill-opacity="1"><g transform="translate(388.360756, 375.672022)"><g><path d="M 14.28125 0 L 14.28125 -322.65625 L 112.6875 -322.65625 L 139.734375 -125.828125 L 166.78125 -322.65625 L 265.9375 -322.65625 L 265.9375 0 L 206.96875 0 L 206.96875 -232.515625 L 169.78125 0 L 111.9375 0 L 72.5 -232.515625 L 72.5 0 Z M 14.28125 0 "/></g></g></g><g fill="#bfa17f" fill-opacity="1"><g transform="translate(695.997634, 375.672022)"><g><path d="M 91.28125 3 C 65.238281 3 45.453125 -4.945312 31.921875 -20.84375 C 18.398438 -36.75 11.640625 -59.097656 11.640625 -87.890625 L 11.640625 -241.53125 C 11.640625 -269.320312 18.398438 -290.289062 31.921875 -304.4375 C 45.453125 -318.59375 65.238281 -325.671875 91.28125 -325.671875 C 117.320312 -325.671875 137.101562 -318.59375 150.625 -304.4375 C 164.144531 -290.289062 170.90625 -269.320312 170.90625 -241.53125 L 170.90625 -87.890625 C 170.90625 -58.847656 164.144531 -36.4375 150.625 -20.65625 C 137.101562 -4.882812 117.320312 3 91.28125 3 Z M 91.28125 -56.34375 C 97.039062 -56.34375 100.921875 -58.847656 102.921875 -63.859375 C 104.921875 -68.867188 105.921875 -75.878906 105.921875 -84.890625 L 105.921875 -242.65625 C 105.921875 -249.664062 104.984375 -255.359375 103.109375 -259.734375 C 101.234375 -264.117188 97.414062 -266.3125 91.65625 -266.3125 C 80.882812 -266.3125 75.5 -258.175781 75.5 -241.90625 L 75.5 -84.515625 C 75.5 -75.253906 76.625 -68.242188 78.875 -63.484375 C 81.132812 -58.722656 85.269531 -56.34375 91.28125 -56.34375 Z M 91.28125 -56.34375 "/></g></g></g></g></g></g><g fill="#432f1a" fill-opacity="1"><g transform="translate(332.491226, 251.41315)"><g><path d="M 30.839844 -24.519531 C 31.21875 -24.902344 30.839844 -25.53125 30.589844 -25.910156 C 30.210938 -26.292969 29.578125 -26.292969 29.199219 -26.039062 C 18.707031 -16.179688 9.734375 -14.664062 7.078125 -14.535156 C 7.457031 -16.558594 7.835938 -18.707031 8.34375 -20.730469 C 8.972656 -24.394531 9.734375 -27.679688 10.363281 -30.714844 L 10.363281 -30.839844 C 15.421875 -34.507812 21.363281 -40.828125 26.039062 -47.777344 C 29.070312 -52.078125 33.75 -60.417969 33.496094 -67.117188 L 33.117188 -67.875 C 33.117188 -70.40625 31.980469 -72.300781 30.210938 -73.5625 C 25.910156 -76.976562 19.84375 -75.332031 15.292969 -69.394531 C 8.46875 -60.546875 2.65625 -42.847656 -0.503906 -20.855469 C -6.445312 16.050781 -3.539062 28.0625 2.273438 34.632812 C 4.804688 37.414062 7.964844 38.929688 10.996094 38.929688 C 12.007812 38.929688 12.894531 38.804688 13.902344 38.550781 C 18.074219 37.160156 22.5 31.980469 21.992188 21.613281 C 21.363281 6.195312 16.8125 -5.433594 8.847656 -12.765625 C 12.386719 -13.273438 20.730469 -15.421875 30.839844 -24.519531 Z M 20.097656 21.488281 C 20.476562 25.910156 19.71875 29.199219 18.203125 31.726562 C 16.558594 34.128906 14.535156 35.011719 12.261719 34 C 9.355469 32.359375 6.699219 27.175781 5.5625 19.71875 C 4.550781 11.375 4.804688 0.757812 6.824219 -12.132812 C 14.914062 -5.183594 19.464844 6.195312 20.097656 21.488281 Z M 28.820312 -70.65625 C 29.703125 -70.53125 31.21875 -69.015625 31.347656 -68.003906 C 31.347656 -67.75 31.347656 -67.496094 31.601562 -67.246094 C 31.980469 -57.890625 20.855469 -41.710938 10.996094 -33.75 C 18.453125 -67.625 25.785156 -70.910156 28.691406 -70.65625 Z M 28.820312 -70.65625 "/></g></g></g><g fill="#432f1a" fill-opacity="1"><g transform="translate(367.119574, 251.41315)"><g/></g></g><g fill="#432f1a" fill-opacity="1"><g transform="translate(417.930607, 251.41315)"><g/></g></g><g fill="#432f1a" fill-opacity="1"><g transform="translate(468.74164, 251.41315)"><g/></g></g><g fill="#432f1a" fill-opacity="1"><g transform="translate(519.539903, 251.41315)"><g><path d="M 47.398438 -25.785156 C 47.148438 -26.164062 46.515625 -26.417969 46.136719 -26.039062 C 46.007812 -26.039062 36.148438 -19.84375 26.921875 -21.992188 C 28.1875 -25.785156 28.691406 -29.703125 28.566406 -33.242188 C 28.1875 -39.6875 25.53125 -44.238281 20.980469 -45.882812 C 18.203125 -46.894531 15.421875 -46.769531 12.640625 -45.378906 C 7.332031 -42.597656 2.78125 -35.390625 0 -25.53125 C -2.402344 -16.9375 0.503906 -10.742188 3.917969 -7.835938 C 5.941406 -6.195312 8.214844 -5.433594 10.617188 -5.433594 C 12.261719 -5.433594 13.777344 -5.8125 15.292969 -6.574219 C 20.351562 -8.972656 24.140625 -14.28125 26.292969 -20.097656 C 27.808594 -19.84375 29.324219 -19.59375 30.96875 -19.59375 C 32.609375 -19.59375 34.507812 -19.84375 36.402344 -20.222656 C 42.34375 -21.488281 46.894531 -24.394531 47.148438 -24.519531 C 47.527344 -24.773438 47.652344 -25.40625 47.398438 -25.785156 Z M 17.191406 -9.984375 C 15.167969 -8.46875 13.019531 -8.34375 11.125 -9.605469 C 8.34375 -11.503906 6.066406 -16.8125 8.46875 -25.785156 C 9.480469 -29.578125 10.996094 -32.863281 12.894531 -35.390625 C 13.019531 -32.988281 13.902344 -29.703125 17.0625 -26.039062 C 19.085938 -23.636719 21.363281 -21.867188 24.140625 -20.855469 C 24.269531 -20.730469 24.394531 -20.730469 24.519531 -20.730469 C 22.878906 -16.433594 20.351562 -12.511719 17.191406 -9.984375 Z M 25.152344 -22.5 C 25.027344 -22.5 24.902344 -22.5 24.773438 -22.625 C 22.878906 -23.382812 21.363281 -25.027344 20.476562 -27.300781 C 18.453125 -32.484375 19.71875 -39.4375 20.476562 -41.585938 C 20.855469 -41.710938 21.109375 -41.710938 21.363281 -41.710938 C 23.132812 -41.964844 24.519531 -41.078125 25.28125 -39.308594 C 26.292969 -37.160156 26.671875 -34.761719 26.671875 -33.117188 C 26.921875 -29.832031 26.292969 -26.039062 25.152344 -22.5 Z M 25.152344 -22.5 "/></g></g></g><g fill="#432f1a" fill-opacity="1"><g transform="translate(570.081785, 251.41315)"><g/></g></g><g fill="#432f1a" fill-opacity="1"><g transform="translate(620.892818, 251.41315)"><g/></g></g><g fill="#432f1a" fill-opacity="1"><g transform="translate(671.703851, 251.41315)"><g/></g></g><g fill="#432f1a" fill-opacity="1"><g transform="translate(722.514881, 251.41315)"><g/></g></g><g fill="#432f1a" fill-opacity="1"><g transform="translate(773.322136, 251.41315)"><g><path d="M 63.578125 -26.164062 C 63.074219 -26.417969 62.566406 -26.164062 62.316406 -25.785156 C 58.523438 -19.210938 55.867188 -15.671875 53.847656 -13.902344 C 53.847656 -13.902344 53.71875 -13.902344 53.71875 -13.777344 C 52.078125 -12.386719 51.066406 -12.132812 50.433594 -12.261719 C 48.789062 -12.511719 47.777344 -15.042969 47.273438 -17.0625 C 45.757812 -23.382812 48.410156 -32.609375 50.179688 -38.679688 C 51.191406 -42.089844 51.699219 -43.734375 51.570312 -44.617188 C 51.066406 -46.894531 48.789062 -50.433594 44.238281 -50.6875 C 40.828125 -50.9375 35.265625 -44.113281 33.621094 -42.089844 C 31.21875 -39.058594 29.324219 -35.898438 27.808594 -32.988281 C 28.1875 -35.140625 28.691406 -37.160156 29.070312 -38.929688 C 29.957031 -42.722656 30.714844 -45.628906 30.082031 -48.285156 C 29.703125 -49.800781 27.933594 -51.445312 25.910156 -52.078125 C 24.140625 -52.582031 22.5 -52.203125 21.234375 -50.9375 C 16.179688 -46.007812 10.617188 -34.253906 7.457031 -24.519531 C 8.34375 -32.738281 10.238281 -40.070312 12.765625 -46.136719 C 13.652344 -48.15625 13.019531 -50.433594 11.25 -51.699219 L 9.480469 -52.960938 C 8.847656 -53.46875 8.089844 -53.59375 7.203125 -53.339844 C 6.445312 -53.085938 5.8125 -52.457031 5.5625 -51.699219 C 2.148438 -41.710938 -1.390625 -21.992188 -1.136719 -7.457031 C -1.011719 -5.054688 0.632812 -2.90625 3.035156 -2.402344 C 3.285156 -2.273438 3.539062 -2.273438 3.664062 -2.273438 C 4.425781 -2.273438 5.054688 -2.527344 5.5625 -2.90625 C 6.195312 -3.539062 6.574219 -4.296875 6.574219 -5.308594 C 6.574219 -7.835938 6.574219 -10.492188 6.699219 -12.894531 C 7.203125 -20.980469 14.914062 -41.207031 21.867188 -48.917969 L 21.992188 -48.917969 C 22.121094 -49.167969 22.5 -49.296875 22.625 -49.167969 C 22.878906 -49.042969 23.257812 -48.15625 22.625 -46.136719 C 21.488281 -42.722656 18.453125 -30.589844 18.203125 -21.742188 C 18.203125 -20.476562 18.707031 -19.210938 19.59375 -18.203125 C 20.476562 -17.316406 21.742188 -16.8125 23.132812 -16.8125 C 24.140625 -16.683594 25.152344 -17.191406 25.910156 -17.824219 C 26.542969 -18.582031 26.921875 -19.464844 26.921875 -20.351562 C 26.796875 -22.121094 26.796875 -23.761719 26.921875 -25.40625 C 26.921875 -25.40625 27.050781 -25.53125 27.050781 -25.660156 C 28.691406 -34.253906 38.171875 -45.757812 42.597656 -48.285156 L 42.722656 -48.410156 C 42.847656 -48.410156 43.101562 -48.539062 43.355469 -48.285156 C 43.859375 -47.777344 44.113281 -46.386719 43.101562 -43.859375 C 41.585938 -39.816406 36.65625 -21.234375 40.070312 -13.523438 C 41.457031 -9.984375 43.988281 -8.972656 45.757812 -8.722656 C 46.136719 -8.59375 46.515625 -8.59375 47.019531 -8.59375 C 49.800781 -8.59375 52.960938 -10.113281 55.109375 -12.511719 L 55.109375 -12.640625 C 57.636719 -14.914062 60.546875 -18.960938 63.832031 -24.902344 C 64.085938 -25.28125 63.957031 -25.910156 63.578125 -26.164062 Z M 63.578125 -26.164062 "/></g></g></g><g fill="#432f1a" fill-opacity="1"><g transform="translate(841.307325, 251.41315)"><g/></g></g><g fill="#432f1a" fill-opacity="1"><g transform="translate(892.118358, 251.41315)"><g/></g></g><g fill="#432f1a" fill-opacity="1"><g transform="translate(942.929391, 251.41315)"><g/></g></g><g fill="#432f1a" fill-opacity="1"><g transform="translate(993.74042, 251.41315)"><g/></g></g><g fill="#432f1a" fill-opacity="1"><g transform="translate(1044.547675, 251.41315)"><g><path d="M 47.398438 -25.785156 C 47.148438 -26.164062 46.515625 -26.417969 46.136719 -26.039062 C 46.007812 -26.039062 36.148438 -19.84375 26.921875 -21.992188 C 28.1875 -25.785156 28.691406 -29.703125 28.566406 -33.242188 C 28.1875 -39.6875 25.53125 -44.238281 20.980469 -45.882812 C 18.203125 -46.894531 15.421875 -46.769531 12.640625 -45.378906 C 7.332031 -42.597656 2.78125 -35.390625 0 -25.53125 C -2.402344 -16.9375 0.503906 -10.742188 3.917969 -7.835938 C 5.941406 -6.195312 8.214844 -5.433594 10.617188 -5.433594 C 12.261719 -5.433594 13.777344 -5.8125 15.292969 -6.574219 C 20.351562 -8.972656 24.140625 -14.28125 26.292969 -20.097656 C 27.808594 -19.84375 29.324219 -19.59375 30.96875 -19.59375 C 32.609375 -19.59375 34.507812 -19.84375 36.402344 -20.222656 C 42.34375 -21.488281 46.894531 -24.394531 47.148438 -24.519531 C 47.527344 -24.773438 47.652344 -25.40625 47.398438 -25.785156 Z M 17.191406 -9.984375 C 15.167969 -8.46875 13.019531 -8.34375 11.125 -9.605469 C 8.34375 -11.503906 6.066406 -16.8125 8.46875 -25.785156 C 9.480469 -29.578125 10.996094 -32.863281 12.894531 -35.390625 C 13.019531 -32.988281 13.902344 -29.703125 17.0625 -26.039062 C 19.085938 -23.636719 21.363281 -21.867188 24.140625 -20.855469 C 24.269531 -20.730469 24.394531 -20.730469 24.519531 -20.730469 C 22.878906 -16.433594 20.351562 -12.511719 17.191406 -9.984375 Z M 25.152344 -22.5 C 25.027344 -22.5 24.902344 -22.5 24.773438 -22.625 C 22.878906 -23.382812 21.363281 -25.027344 20.476562 -27.300781 C 18.453125 -32.484375 19.71875 -39.4375 20.476562 -41.585938 C 20.855469 -41.710938 21.109375 -41.710938 21.363281 -41.710938 C 23.132812 -41.964844 24.519531 -41.078125 25.28125 -39.308594 C 26.292969 -37.160156 26.671875 -34.761719 26.671875 -33.117188 C 26.921875 -29.832031 26.292969 -26.039062 25.152344 -22.5 Z M 25.152344 -22.5 "/></g></g></g><g clip-path="url(#a92cad9545)"><path fill="#432f1a" d="M 1085.910156 234.566406 C 1085.054688 235.894531 1083.898438 234.847656 1084.636719 233.679688 C 1111.921875 190.734375 1129.039062 248.992188 1183.890625 244.101562 C 1268.351562 236.574219 1338.953125 212.539062 1391.503906 233.230469 C 1395.167969 234.675781 1392.589844 237.703125 1389.5 236.289062 C 1345.761719 216.261719 1264.515625 237.230469 1183.527344 245.726562 C 1128.648438 251.484375 1113.136719 192.324219 1085.910156 234.566406 Z M 1085.910156 234.566406 " fill-opacity="1" fill-rule="nonzero"/></g><path fill="#432f1a" d="M 337.339844 232.402344 C 338.160156 233.667969 339.261719 232.671875 338.554688 231.5625 C 312.519531 190.734375 296.1875 246.121094 243.847656 241.46875 C 163.253906 234.3125 95.882812 211.460938 45.738281 231.132812 C 42.246094 232.507812 44.703125 235.382812 47.652344 234.039062 C 89.386719 215 166.914062 234.9375 244.195312 243.015625 C 296.558594 248.484375 311.359375 192.242188 337.339844 232.402344 Z M 337.339844 232.402344 " fill-opacity="1" fill-rule="nonzero"/><g clip-path="url(#09d280b1d0)"><path fill="#432f1a" d="M 577.441406 225.132812 C 578.046875 226.066406 578.871094 225.328125 578.34375 224.507812 C 558.949219 194.285156 546.78125 235.285156 507.789062 231.84375 C 447.753906 226.542969 397.566406 209.628906 360.210938 224.191406 C 357.609375 225.207031 359.441406 227.339844 361.636719 226.34375 C 392.726562 212.25 450.480469 227.007812 508.050781 232.988281 C 547.058594 237.039062 558.085938 195.402344 577.441406 225.132812 Z M 577.441406 225.132812 " fill-opacity="1" fill-rule="nonzero"/></g><g clip-path="url(#4f4940a131)"><path fill="#432f1a" d="M 850.96875 228.792969 C 851.777344 230.054688 852.875 229.058594 852.171875 227.949219 C 826.335938 187.121094 810.125 242.507812 758.179688 237.859375 C 678.199219 230.699219 611.339844 207.851562 561.574219 227.523438 C 558.105469 228.894531 560.546875 231.773438 563.472656 230.429688 C 604.890625 211.390625 681.832031 231.324219 758.527344 239.402344 C 810.496094 244.875 825.183594 188.632812 850.96875 228.792969 Z M 850.96875 228.792969 " fill-opacity="1" fill-rule="nonzero"/></g><g clip-path="url(#e7a89d95f7)"><path fill="#432f1a" d="M 1130.445312 231.496094 C 1131.3125 232.84375 1132.484375 231.78125 1131.734375 230.601562 C 1104.121094 187.121094 1086.796875 246.105469 1031.28125 241.152344 C 945.804688 233.527344 874.351562 209.195312 821.167969 230.144531 C 817.464844 231.605469 820.074219 234.671875 823.199219 233.242188 C 867.460938 212.964844 949.6875 234.195312 1031.652344 242.796875 C 1087.191406 248.625 1102.890625 188.730469 1130.445312 231.496094 Z M 1130.445312 231.496094 " fill-opacity="1" fill-rule="nonzero"/></g></svg>